<svg xmlns="http://www.w3.org/2000/svg" viewBox="0 0 900 600"><defs><linearGradient id="g" x1="0" x2="1"><stop stop-color="#f5f7ff"/><stop offset="1" stop-color="#dce7ff"/></linearGradient><filter id="s" x="-20%" y="-20%" width="140%" height="140%"><feDropShadow dx="0" dy="24" stdDeviation="28" flood-color="#2b3a67" flood-opacity=".20"/></filter></defs><rect width="900" height="600" rx="48" fill="url(#g)"/><circle cx="150" cy="120" r="80" fill="#fff" opacity=".7"/><circle cx="755" cy="455" r="105" fill="#fff" opacity=".6"/><rect x="190" y="135" width="390" height="255" rx="26" fill="#111827" filter="url(#s)"/><rect x="215" y="160" width="340" height="190" rx="14" fill="#f8fafc"/><path d="M250 226h270M250 270h185M250 314h230" stroke="#8b5cf6" stroke-width="18" stroke-linecap="round" opacity=".75"/><rect x="330" y="390" width="120" height="26" rx="8" fill="#1f2937"/><rect x="275" y="418" width="230" height="24" rx="12" fill="#111827"/><rect x="595" y="145" width="135" height="290" rx="32" fill="#0f172a" filter="url(#s)"/><rect x="610" y="178" width="105" height="215" rx="18" fill="#f8fafc"/><circle cx="663" cy="414" r="10" fill="#e5e7eb"/><circle cx="660" cy="245" r="50" fill="#60a5fa" opacity=".35"/><path d="M638 245l17 18 36-43" fill="none" stroke="#2563eb" stroke-width="12" stroke-linecap="round" stroke-linejoin="round"/></svg>
